<mxfile host="Electron" modified="2023-09-22T14:40:08.538Z" agent="Mozilla/5.0 (Windows NT 10.0; Win64; x64) AppleWebKit/537.36 (KHTML, like Gecko) draw.io/21.7.5 Chrome/114.0.5735.289 Electron/25.8.1 Safari/537.36" etag="5e3SpXcL39hXqDl6DFqT" version="21.7.5" type="device">
  <diagram name="Page-1" id="rCKwZd0itfZoapRE3r3l">
    <mxGraphModel dx="918" dy="1738" grid="1" gridSize="10" guides="1" tooltips="1" connect="1" arrows="1" fold="1" page="1" pageScale="1" pageWidth="850" pageHeight="1100" math="0" shadow="0">
      <root>
        <mxCell id="0" />
        <mxCell id="1" parent="0" />
        <mxCell id="IrOClc5yGt9-azTjfgqN-24" value="" style="edgeStyle=orthogonalEdgeStyle;rounded=0;orthogonalLoop=1;jettySize=auto;html=1;fontFamily=Times New Roman;fontSize=12;" edge="1" parent="1" source="a5QK_DtoIXeYR3R1yYuX-2" target="a5QK_DtoIXeYR3R1yYuX-4">
          <mxGeometry relative="1" as="geometry" />
        </mxCell>
        <mxCell id="a5QK_DtoIXeYR3R1yYuX-2" value="start" style="ellipse;whiteSpace=wrap;html=1;fontFamily=Times New Roman;fontSize=12;" parent="1" vertex="1">
          <mxGeometry x="188.75" y="-1030" width="142.5" height="80" as="geometry" />
        </mxCell>
        <mxCell id="IrOClc5yGt9-azTjfgqN-25" value="" style="edgeStyle=orthogonalEdgeStyle;rounded=0;orthogonalLoop=1;jettySize=auto;html=1;fontFamily=Times New Roman;fontSize=12;" edge="1" parent="1" source="a5QK_DtoIXeYR3R1yYuX-4" target="a5QK_DtoIXeYR3R1yYuX-6">
          <mxGeometry relative="1" as="geometry" />
        </mxCell>
        <mxCell id="a5QK_DtoIXeYR3R1yYuX-4" value="&#xa;&lt;span style=&quot;color: rgb(0, 0, 0); font-size: 12px; font-style: normal; font-variant-ligatures: normal; font-variant-caps: normal; font-weight: 400; letter-spacing: normal; orphans: 2; text-align: center; text-indent: 0px; text-transform: none; widows: 2; word-spacing: 0px; -webkit-text-stroke-width: 0px; background-color: rgb(251, 251, 251); text-decoration-thickness: initial; text-decoration-style: initial; text-decoration-color: initial; float: none; display: inline !important;&quot;&gt;String&amp;nbsp;isMember, jenisKendaraan, kode, gedung, exit&lt;/span&gt;&lt;br style=&quot;border-color: var(--border-color); color: rgb(0, 0, 0); font-size: 12px; font-style: normal; font-variant-ligatures: normal; font-variant-caps: normal; font-weight: 400; letter-spacing: normal; orphans: 2; text-align: center; text-indent: 0px; text-transform: none; widows: 2; word-spacing: 0px; -webkit-text-stroke-width: 0px; background-color: rgb(251, 251, 251); text-decoration-thickness: initial; text-decoration-style: initial; text-decoration-color: initial;&quot;&gt;&lt;br style=&quot;border-color: var(--border-color); color: rgb(0, 0, 0); font-size: 12px; font-style: normal; font-variant-ligatures: normal; font-variant-caps: normal; font-weight: 400; letter-spacing: normal; orphans: 2; text-align: center; text-indent: 0px; text-transform: none; widows: 2; word-spacing: 0px; -webkit-text-stroke-width: 0px; background-color: rgb(251, 251, 251); text-decoration-thickness: initial; text-decoration-style: initial; text-decoration-color: initial;&quot;&gt;&lt;span style=&quot;color: rgb(0, 0, 0); font-size: 12px; font-style: normal; font-variant-ligatures: normal; font-variant-caps: normal; font-weight: 400; letter-spacing: normal; orphans: 2; text-align: center; text-indent: 0px; text-transform: none; widows: 2; word-spacing: 0px; -webkit-text-stroke-width: 0px; background-color: rgb(251, 251, 251); text-decoration-thickness: initial; text-decoration-style: initial; text-decoration-color: initial; float: none; display: inline !important;&quot;&gt;int i&lt;/span&gt;&lt;font style=&quot;border-color: var(--border-color); color: rgb(0, 0, 0); font-size: 12px; font-style: normal; font-variant-ligatures: normal; font-variant-caps: normal; font-weight: 400; letter-spacing: normal; orphans: 2; text-align: center; text-indent: 0px; text-transform: none; widows: 2; word-spacing: 0px; -webkit-text-stroke-width: 0px; background-color: rgb(251, 251, 251); text-decoration-thickness: initial; text-decoration-style: initial; text-decoration-color: initial;&quot;&gt;dMasuk, tarifParkirAwal,&amp;nbsp;&lt;span style=&quot;border-color: var(--border-color); background-color: initial; font-size: 12px;&quot;&gt;tarifHelm, totalSementara,&lt;br style=&quot;border-color: var(--border-color); font-size: 12px;&quot;&gt;&lt;/span&gt;&lt;/font&gt;&lt;span style=&quot;border-color: var(--border-color); color: rgb(0, 0, 0); font-size: 12px; font-style: normal; font-variant-ligatures: normal; font-variant-caps: normal; font-weight: 400; letter-spacing: normal; orphans: 2; text-align: center; text-indent: 0px; text-transform: none; widows: 2; word-spacing: 0px; -webkit-text-stroke-width: 0px; background-color: initial; text-decoration-thickness: initial; text-decoration-style: initial; text-decoration-color: initial;&quot;&gt;waktuParkir, tarifParkirPerjam, tarifParkirTotal&lt;br style=&quot;border-color: var(--border-color); font-size: 12px;&quot;&gt;&lt;/span&gt;&lt;br style=&quot;border-color: var(--border-color); color: rgb(0, 0, 0); font-size: 12px; font-style: normal; font-variant-ligatures: normal; font-variant-caps: normal; font-weight: 400; letter-spacing: normal; orphans: 2; text-align: center; text-indent: 0px; text-transform: none; widows: 2; word-spacing: 0px; -webkit-text-stroke-width: 0px; background-color: rgb(251, 251, 251); text-decoration-thickness: initial; text-decoration-style: initial; text-decoration-color: initial;&quot;&gt;&lt;span style=&quot;color: rgb(0, 0, 0); font-size: 12px; font-style: normal; font-variant-ligatures: normal; font-variant-caps: normal; font-weight: 400; letter-spacing: normal; orphans: 2; text-align: center; text-indent: 0px; text-transform: none; widows: 2; word-spacing: 0px; -webkit-text-stroke-width: 0px; background-color: rgb(251, 251, 251); text-decoration-thickness: initial; text-decoration-style: initial; text-decoration-color: initial; float: none; display: inline !important;&quot;&gt;float diskon, totalDiskon, totalPembayaran, pembayaran&lt;/span&gt;&#xa;&#xa;" style="shape=hexagon;perimeter=hexagonPerimeter2;whiteSpace=wrap;html=1;fixedSize=1;size=40;fontFamily=Times New Roman;fontSize=12;" parent="1" vertex="1">
          <mxGeometry x="95" y="-909" width="330" height="140" as="geometry" />
        </mxCell>
        <mxCell id="IrOClc5yGt9-azTjfgqN-26" value="" style="edgeStyle=orthogonalEdgeStyle;rounded=0;orthogonalLoop=1;jettySize=auto;html=1;fontFamily=Times New Roman;fontSize=12;" edge="1" parent="1" source="a5QK_DtoIXeYR3R1yYuX-6" target="IrOClc5yGt9-azTjfgqN-1">
          <mxGeometry relative="1" as="geometry" />
        </mxCell>
        <mxCell id="a5QK_DtoIXeYR3R1yYuX-6" value="isMember, diskon, idMasuk, jenisKendaraan, tarifParkirAwal, gedung, tarifHelm" style="shape=parallelogram;perimeter=parallelogramPerimeter;whiteSpace=wrap;html=1;fixedSize=1;size=30;fontFamily=Times New Roman;fontSize=12;" parent="1" vertex="1">
          <mxGeometry x="121.25" y="-720" width="277.5" height="120" as="geometry" />
        </mxCell>
        <mxCell id="IrOClc5yGt9-azTjfgqN-28" value="" style="edgeStyle=orthogonalEdgeStyle;rounded=0;orthogonalLoop=1;jettySize=auto;html=1;fontFamily=Times New Roman;fontSize=12;" edge="1" parent="1" source="a5QK_DtoIXeYR3R1yYuX-8" target="a5QK_DtoIXeYR3R1yYuX-10">
          <mxGeometry relative="1" as="geometry" />
        </mxCell>
        <mxCell id="a5QK_DtoIXeYR3R1yYuX-8" value="kode = &quot;2939&quot;+gedung+idMasuk&amp;nbsp;" style="rounded=0;whiteSpace=wrap;html=1;fontFamily=Times New Roman;fontSize=12;" parent="1" vertex="1">
          <mxGeometry x="513.75" y="-899" width="250" height="130" as="geometry" />
        </mxCell>
        <mxCell id="IrOClc5yGt9-azTjfgqN-29" value="" style="edgeStyle=orthogonalEdgeStyle;rounded=0;orthogonalLoop=1;jettySize=auto;html=1;fontFamily=Times New Roman;fontSize=12;" edge="1" parent="1" source="a5QK_DtoIXeYR3R1yYuX-10" target="IrOClc5yGt9-azTjfgqN-7">
          <mxGeometry relative="1" as="geometry" />
        </mxCell>
        <mxCell id="a5QK_DtoIXeYR3R1yYuX-10" value="totalSementara = tarifParkirAwal + tarifHelm" style="rounded=0;whiteSpace=wrap;html=1;fontFamily=Times New Roman;fontSize=12;" parent="1" vertex="1">
          <mxGeometry x="513.75" y="-720" width="250" height="130" as="geometry" />
        </mxCell>
        <mxCell id="IrOClc5yGt9-azTjfgqN-10" value="" style="edgeStyle=orthogonalEdgeStyle;rounded=0;orthogonalLoop=1;jettySize=auto;html=1;fontFamily=Times New Roman;fontSize=12;" edge="1" parent="1" source="a5QK_DtoIXeYR3R1yYuX-12" target="a5QK_DtoIXeYR3R1yYuX-14">
          <mxGeometry relative="1" as="geometry" />
        </mxCell>
        <mxCell id="a5QK_DtoIXeYR3R1yYuX-12" value="kode, gedung, tarifParkirAwal, tarifHelm,&lt;br style=&quot;font-size: 12px;&quot;&gt;totalSementara" style="shape=parallelogram;perimeter=parallelogramPerimeter;whiteSpace=wrap;html=1;fixedSize=1;size=30;fontFamily=Times New Roman;fontSize=12;" parent="1" vertex="1">
          <mxGeometry x="121.25" y="-202" width="277.5" height="120" as="geometry" />
        </mxCell>
        <mxCell id="a5QK_DtoIXeYR3R1yYuX-13" value="" style="edgeStyle=orthogonalEdgeStyle;rounded=0;orthogonalLoop=1;jettySize=auto;html=1;fontFamily=Times New Roman;fontSize=12;" parent="1" source="a5QK_DtoIXeYR3R1yYuX-14" target="a5QK_DtoIXeYR3R1yYuX-20" edge="1">
          <mxGeometry relative="1" as="geometry" />
        </mxCell>
        <mxCell id="a5QK_DtoIXeYR3R1yYuX-14" value="exit, kode, waktuParkir" style="shape=parallelogram;perimeter=parallelogramPerimeter;whiteSpace=wrap;html=1;fixedSize=1;size=30;fontFamily=Times New Roman;fontSize=12;" parent="1" vertex="1">
          <mxGeometry x="121.25" y="-20" width="277.5" height="120" as="geometry" />
        </mxCell>
        <mxCell id="IrOClc5yGt9-azTjfgqN-22" value="" style="edgeStyle=orthogonalEdgeStyle;rounded=0;orthogonalLoop=1;jettySize=auto;html=1;fontFamily=Times New Roman;fontSize=12;" edge="1" parent="1" source="a5QK_DtoIXeYR3R1yYuX-16" target="IrOClc5yGt9-azTjfgqN-12">
          <mxGeometry relative="1" as="geometry" />
        </mxCell>
        <mxCell id="a5QK_DtoIXeYR3R1yYuX-16" value="totalPembayaran = tarifParkirTotal + tarifHelm" style="rounded=0;whiteSpace=wrap;html=1;fontFamily=Times New Roman;fontSize=12;" parent="1" vertex="1">
          <mxGeometry x="135" y="528" width="250" height="130" as="geometry" />
        </mxCell>
        <mxCell id="IrOClc5yGt9-azTjfgqN-21" value="" style="edgeStyle=orthogonalEdgeStyle;rounded=0;orthogonalLoop=1;jettySize=auto;html=1;fontFamily=Times New Roman;fontSize=12;" edge="1" parent="1" source="a5QK_DtoIXeYR3R1yYuX-18" target="a5QK_DtoIXeYR3R1yYuX-16">
          <mxGeometry relative="1" as="geometry" />
        </mxCell>
        <mxCell id="a5QK_DtoIXeYR3R1yYuX-18" value="tarifParkirTotal = tarifParkirAwal + tarifParkirPerjam" style="rounded=0;whiteSpace=wrap;html=1;fontFamily=Times New Roman;fontSize=12;" parent="1" vertex="1">
          <mxGeometry x="135" y="337" width="250" height="130" as="geometry" />
        </mxCell>
        <mxCell id="a5QK_DtoIXeYR3R1yYuX-19" value="" style="edgeStyle=orthogonalEdgeStyle;rounded=0;orthogonalLoop=1;jettySize=auto;html=1;fontFamily=Times New Roman;fontSize=12;" parent="1" source="a5QK_DtoIXeYR3R1yYuX-20" target="a5QK_DtoIXeYR3R1yYuX-18" edge="1">
          <mxGeometry relative="1" as="geometry" />
        </mxCell>
        <mxCell id="a5QK_DtoIXeYR3R1yYuX-20" value="tarifParkirPerjam = (waktuParkir-1)*1000" style="rounded=0;whiteSpace=wrap;html=1;fontFamily=Times New Roman;fontSize=12;" parent="1" vertex="1">
          <mxGeometry x="135" y="157" width="250" height="130" as="geometry" />
        </mxCell>
        <mxCell id="a5QK_DtoIXeYR3R1yYuX-21" value="" style="edgeStyle=orthogonalEdgeStyle;rounded=0;orthogonalLoop=1;jettySize=auto;html=1;fontFamily=Times New Roman;fontSize=12;" parent="1" source="a5QK_DtoIXeYR3R1yYuX-22" target="a5QK_DtoIXeYR3R1yYuX-24" edge="1">
          <mxGeometry relative="1" as="geometry" />
        </mxCell>
        <mxCell id="a5QK_DtoIXeYR3R1yYuX-22" value="totalDiskon = totalPembayaran * diskon" style="rounded=0;whiteSpace=wrap;html=1;fontFamily=Times New Roman;fontSize=12;" parent="1" vertex="1">
          <mxGeometry x="513.75" y="-202" width="250" height="130" as="geometry" />
        </mxCell>
        <mxCell id="a5QK_DtoIXeYR3R1yYuX-23" value="" style="edgeStyle=orthogonalEdgeStyle;rounded=0;orthogonalLoop=1;jettySize=auto;html=1;fontFamily=Times New Roman;fontSize=12;" parent="1" source="a5QK_DtoIXeYR3R1yYuX-24" target="a5QK_DtoIXeYR3R1yYuX-26" edge="1">
          <mxGeometry relative="1" as="geometry" />
        </mxCell>
        <mxCell id="a5QK_DtoIXeYR3R1yYuX-24" value="totalPembayaran -= totalDiskon" style="rounded=0;whiteSpace=wrap;html=1;fontFamily=Times New Roman;fontSize=12;" parent="1" vertex="1">
          <mxGeometry x="513.75" y="-22" width="250" height="130" as="geometry" />
        </mxCell>
        <mxCell id="a5QK_DtoIXeYR3R1yYuX-25" value="" style="edgeStyle=orthogonalEdgeStyle;rounded=0;orthogonalLoop=1;jettySize=auto;html=1;fontFamily=Times New Roman;fontSize=12;" parent="1" source="a5QK_DtoIXeYR3R1yYuX-26" target="a5QK_DtoIXeYR3R1yYuX-28" edge="1">
          <mxGeometry relative="1" as="geometry" />
        </mxCell>
        <mxCell id="a5QK_DtoIXeYR3R1yYuX-26" value="kode, gedung, tarifParkirAwal,&lt;br style=&quot;font-size: 12px;&quot;&gt;tarifParkirPerjam, tarifHelm, totalPembayaran" style="shape=parallelogram;perimeter=parallelogramPerimeter;whiteSpace=wrap;html=1;fixedSize=1;size=30;fontFamily=Times New Roman;fontSize=12;" parent="1" vertex="1">
          <mxGeometry x="500" y="158" width="277.5" height="120" as="geometry" />
        </mxCell>
        <mxCell id="a5QK_DtoIXeYR3R1yYuX-27" value="" style="edgeStyle=orthogonalEdgeStyle;rounded=0;orthogonalLoop=1;jettySize=auto;html=1;fontFamily=Times New Roman;fontSize=12;" parent="1" source="a5QK_DtoIXeYR3R1yYuX-28" target="a5QK_DtoIXeYR3R1yYuX-29" edge="1">
          <mxGeometry relative="1" as="geometry" />
        </mxCell>
        <mxCell id="a5QK_DtoIXeYR3R1yYuX-28" value="pembayaran" style="shape=parallelogram;perimeter=parallelogramPerimeter;whiteSpace=wrap;html=1;fixedSize=1;size=30;fontFamily=Times New Roman;fontSize=12;" parent="1" vertex="1">
          <mxGeometry x="500" y="328" width="277.5" height="120" as="geometry" />
        </mxCell>
        <mxCell id="a5QK_DtoIXeYR3R1yYuX-29" value="end" style="ellipse;whiteSpace=wrap;html=1;fontFamily=Times New Roman;fontSize=12;" parent="1" vertex="1">
          <mxGeometry x="567.5" y="517" width="142.5" height="80" as="geometry" />
        </mxCell>
        <mxCell id="IrOClc5yGt9-azTjfgqN-1" value="A" style="ellipse;whiteSpace=wrap;html=1;fontFamily=Times New Roman;fontSize=14;" vertex="1" parent="1">
          <mxGeometry x="220" y="-550" width="80" height="80" as="geometry" />
        </mxCell>
        <mxCell id="IrOClc5yGt9-azTjfgqN-27" value="" style="edgeStyle=orthogonalEdgeStyle;rounded=0;orthogonalLoop=1;jettySize=auto;html=1;fontFamily=Times New Roman;fontSize=12;" edge="1" parent="1" source="IrOClc5yGt9-azTjfgqN-3" target="a5QK_DtoIXeYR3R1yYuX-8">
          <mxGeometry relative="1" as="geometry" />
        </mxCell>
        <mxCell id="IrOClc5yGt9-azTjfgqN-3" value="A" style="ellipse;whiteSpace=wrap;html=1;fontFamily=Times New Roman;fontSize=14;" vertex="1" parent="1">
          <mxGeometry x="598.75" y="-1030" width="80" height="80" as="geometry" />
        </mxCell>
        <mxCell id="IrOClc5yGt9-azTjfgqN-7" value="1" style="shape=offPageConnector;whiteSpace=wrap;html=1;fontSize=14;align=center;fontFamily=Times New Roman;" vertex="1" parent="1">
          <mxGeometry x="598.75" y="-540" width="80" height="80" as="geometry" />
        </mxCell>
        <mxCell id="IrOClc5yGt9-azTjfgqN-11" value="" style="edgeStyle=orthogonalEdgeStyle;rounded=0;orthogonalLoop=1;jettySize=auto;html=1;fontFamily=Times New Roman;fontSize=12;" edge="1" parent="1" source="IrOClc5yGt9-azTjfgqN-9" target="a5QK_DtoIXeYR3R1yYuX-12">
          <mxGeometry relative="1" as="geometry" />
        </mxCell>
        <mxCell id="IrOClc5yGt9-azTjfgqN-9" value="1" style="shape=offPageConnector;whiteSpace=wrap;html=1;fontSize=14;align=center;fontFamily=Times New Roman;" vertex="1" parent="1">
          <mxGeometry x="220" y="-333" width="80" height="80" as="geometry" />
        </mxCell>
        <mxCell id="IrOClc5yGt9-azTjfgqN-12" value="B" style="ellipse;whiteSpace=wrap;html=1;fontFamily=Times New Roman;rounded=0;fontSize=14;" vertex="1" parent="1">
          <mxGeometry x="220" y="707" width="80" height="80" as="geometry" />
        </mxCell>
        <mxCell id="IrOClc5yGt9-azTjfgqN-23" value="" style="edgeStyle=orthogonalEdgeStyle;rounded=0;orthogonalLoop=1;jettySize=auto;html=1;fontFamily=Times New Roman;fontSize=12;" edge="1" parent="1" source="IrOClc5yGt9-azTjfgqN-14" target="a5QK_DtoIXeYR3R1yYuX-22">
          <mxGeometry relative="1" as="geometry" />
        </mxCell>
        <mxCell id="IrOClc5yGt9-azTjfgqN-14" value="B" style="ellipse;whiteSpace=wrap;html=1;fontFamily=Times New Roman;rounded=0;fontSize=14;" vertex="1" parent="1">
          <mxGeometry x="598.75" y="-333" width="80" height="80" as="geometry" />
        </mxCell>
      </root>
    </mxGraphModel>
  </diagram>
</mxfile>
